<svg width="34" height="5" viewBox="0 0 34 5" fill="none" xmlns="http://www.w3.org/2000/svg">
<rect width="4" height="1" fill="#B7B1B1"/>
<rect y="2" width="3" height="1" fill="#B7B1B1"/>
<rect width="1" height="5" fill="#B7B1B1"/>
<rect y="4" width="4" height="1" fill="#B7B1B1"/>
<rect x="5" width="4" height="1" fill="#B7B1B1"/>
<rect x="5" width="1" height="3" fill="#B7B1B1"/>
<rect x="5" y="2" width="4" height="1" fill="#B7B1B1"/>
<rect x="8" y="2" width="1" height="3" fill="#B7B1B1"/>
<rect x="5" y="4" width="4" height="1" fill="#B7B1B1"/>
<rect x="10" width="1" height="5" fill="#B7B1B1"/>
<rect x="13" width="1" height="5" fill="#B7B1B1"/>
<rect x="10" y="2" width="4" height="1" fill="#B7B1B1"/>
<rect x="15" width="4" height="1" fill="#F1ECEC"/>
<rect x="25" width="4" height="1" fill="#F1ECEC"/>
<rect x="20" width="1" height="3" fill="#F1ECEC"/>
<rect x="23" y="2" width="1" height="3" fill="#F1ECEC"/>
<rect x="20" y="4" width="4" height="1" fill="#F1ECEC"/>
<rect x="15" y="2" width="4" height="1" fill="#F1ECEC"/>
<rect x="25" y="2" width="4" height="1" fill="#F1ECEC"/>
<rect x="20" y="2" width="4" height="1" fill="#F1ECEC"/>
<rect x="15" width="1" height="5" fill="#F1ECEC"/>
<rect x="25" width="1" height="5" fill="#F1ECEC"/>
<rect x="31.5" width="1" height="5" fill="#F1ECEC"/>
<rect x="30" width="4" height="1" fill="#F1ECEC"/>
<rect x="18" width="1" height="5" fill="#F1ECEC"/>
<rect x="28" width="1" height="5" fill="#F1ECEC"/>
<rect x="23" width="1" height="3" fill="#F1ECEC"/>
</svg>
